<?xml version="1.0" encoding="UTF-8" standalone="no"?>
<svg width="45px" height="38px" viewBox="0 0 45 38" version="1.1" xmlns="http://www.w3.org/2000/svg" xmlns:xlink="http://www.w3.org/1999/xlink">
    <!-- Generator: Sketch 3.8.3 (29802) - http://www.bohemiancoding.com/sketch -->
    <title>scaladex-brand</title>
    <desc>Created with Sketch.</desc>
    <defs></defs>
    <g id="UI-Design" stroke="none" stroke-width="1" fill="none" fill-rule="evenodd">
        <g id="Assets" transform="translate(-112.000000, -76.000000)">
            <g id="scaladex-brand" transform="translate(112.000000, 79.000000)">
                <path d="M11,3 L28,3 L28,0 L9,0 L0.0299987793,16.5 L9,32.933038 L9,33 L28,33 L28,30 L11.0689068,30 L3.81280518,16.5000005 L11,3 Z M13,9 L32,9 L32,12 L13,12 L13,9 Z M13,15 L24,15 L24,18 L13,18 L13,15 Z M13,21 L28,21 L28,24 L13,24 L13,21 Z" id="Icon" fill="#F26527"></path>
            </g>
        </g>
    </g>
</svg>
